<?xml version="1.0" encoding="UTF-8" standalone="no"?>
<!-- Created with Inkscape (http://www.inkscape.org/) -->

<svg
   width="512"
   height="512"
   viewBox="0 0 135.46666 135.46667"
   version="1.1"
   id="svg8"
   inkscape:version="1.3.2 (091e20ef0f, 2023-11-25)"
   sodipodi:docname="logo.svg"
   xmlns:inkscape="http://www.inkscape.org/namespaces/inkscape"
   xmlns:sodipodi="http://sodipodi.sourceforge.net/DTD/sodipodi-0.dtd"
   xmlns:xlink="http://www.w3.org/1999/xlink"
   xmlns="http://www.w3.org/2000/svg"
   xmlns:svg="http://www.w3.org/2000/svg"
   xmlns:rdf="http://www.w3.org/1999/02/22-rdf-syntax-ns#"
   xmlns:cc="http://creativecommons.org/ns#"
   xmlns:dc="http://purl.org/dc/elements/1.1/">
  <defs
     id="defs2">
    <linearGradient
       inkscape:collect="always"
       id="linearGradient829">
      <stop
         style="stop-color:#66b2ff;stop-opacity:1;"
         offset="0"
         id="stop825" />
      <stop
         style="stop-color:#0080ff;stop-opacity:1;"
         offset="1"
         id="stop827" />
    </linearGradient>
    <linearGradient
       inkscape:collect="always"
       xlink:href="#linearGradient829"
       id="linearGradient1"
       x1="1.1664108"
       y1="163.12967"
       x2="133.78275"
       y2="295.64206"
       gradientUnits="userSpaceOnUse" />
    <filter
       inkscape:collect="always"
       style="color-interpolation-filters:sRGB"
       id="filter10"
       x="-0.043000086"
       y="-0.054315678"
       width="1.0860002"
       height="1.1086314">
      <feGaussianBlur
         inkscape:collect="always"
         stdDeviation="1.8203299"
         id="feGaussianBlur10" />
    </filter>
  </defs>
  <sodipodi:namedview
     id="base"
     pagecolor="#ffffff"
     bordercolor="#666666"
     borderopacity="1.0"
     inkscape:pageopacity="0.0"
     inkscape:pageshadow="2"
     inkscape:zoom="0.98994949"
     inkscape:cx="359.10923"
     inkscape:cy="195.46452"
     inkscape:document-units="mm"
     inkscape:current-layer="layer1"
     showgrid="false"
     units="px"
     inkscape:window-width="1920"
     inkscape:window-height="1043"
     inkscape:window-x="0"
     inkscape:window-y="0"
     inkscape:window-maximized="1"
     inkscape:showpageshadow="2"
     inkscape:pagecheckerboard="0"
     inkscape:deskcolor="#d1d1d1" />
  <metadata
     id="metadata5">
    <rdf:RDF>
      <cc:Work
         rdf:about="">
        <dc:format>image/svg+xml</dc:format>
        <dc:type
           rdf:resource="http://purl.org/dc/dcmitype/StillImage" />
      </cc:Work>
    </rdf:RDF>
  </metadata>
  <g
     inkscape:label="Layer 1"
     inkscape:groupmode="layer"
     id="layer1"
     transform="translate(0,-161.53332)">
    <rect
       style="opacity:1;fill:url(#linearGradient1);fill-opacity:1;stroke:#aeae00;stroke-width:0;stroke-linecap:square;stroke-linejoin:round;stroke-miterlimit:4;stroke-dasharray:none;stroke-opacity:1"
       id="rect815"
       width="135.46666"
       height="135.46666"
       x="1.4030164e-08"
       y="161.53333" />
    <g
       id="g10"
       transform="matrix(1.0000039,0,0,1,-3.2630174e-4,1.0583334)"
       style="fill:#000000;fill-opacity:0.19551738;filter:url(#filter10)">
      <path
         style="color:#000000;fill:#000000;fill-opacity:0.19551738;stroke-linecap:square;stroke-linejoin:round;-inkscape-stroke:none"
         d="M 21.166016,197.51562 A 4.2339234,4.2339234 0 0 0 16.933594,201.75 v 59.26758 a 4.2339234,4.2339234 0 0 0 4.232422,4.23242 h 93.134764 a 4.2339234,4.2339234 0 0 0 4.23242,-4.23242 V 201.75 a 4.2339234,4.2339234 0 0 0 -4.23242,-4.23438 z m 4.234375,8.46875 H 110.06641 V 256.7832 H 25.400391 Z"
         id="path8" />
      <path
         style="color:#000000;font-style:normal;font-variant:normal;font-weight:normal;font-stretch:normal;font-size:medium;line-height:normal;font-family:sans-serif;font-variant-ligatures:normal;font-variant-position:normal;font-variant-caps:normal;font-variant-numeric:normal;font-variant-alternates:normal;font-feature-settings:normal;text-indent:0;text-align:start;text-decoration:none;text-decoration-line:none;text-decoration-style:solid;text-decoration-color:#000000;letter-spacing:normal;word-spacing:normal;text-transform:none;writing-mode:lr-tb;direction:ltr;text-orientation:mixed;dominant-baseline:auto;baseline-shift:baseline;text-anchor:start;white-space:normal;shape-padding:0;clip-rule:nonzero;display:inline;overflow:visible;visibility:visible;isolation:auto;mix-blend-mode:normal;color-interpolation:sRGB;color-interpolation-filters:linearRGB;solid-color:#000000;solid-opacity:1;fill:#000000;fill-opacity:0.19551738;fill-rule:nonzero;stroke:none;stroke-width:4.23333;stroke-linecap:round;stroke-linejoin:miter;stroke-miterlimit:4;stroke-dasharray:none;stroke-dashoffset:0;stroke-opacity:1;color-rendering:auto;image-rendering:auto;shape-rendering:auto;text-rendering:auto;enable-background:accumulate"
         d="m 36.037377,184.81738 a 2.1152862,2.1166667 0 1 0 0,4.23188 h 6.31476 v -4.23188 z m 8.429835,0 v 4.23188 h 1.057537 v -4.23188 z m 3.172612,0 v 4.23188 h 51.789384 a 2.1152862,2.1166667 0 1 0 0,-4.23188 z"
         id="path9"
         inkscape:connector-curvature="0" />
      <path
         style="fill:#000000;fill-opacity:0.19551738;stroke:#000000;stroke-width:0;stroke-linecap:butt;stroke-linejoin:miter;stroke-miterlimit:4;stroke-dasharray:none;stroke-opacity:1"
         d="m 38.511846,241.87531 c 1.202712,-8.15172 6.992082,-27.44492 18.580318,-24.76551 8.795713,2.03373 11.063719,29.08439 19.759395,25.75112 6.181977,-2.3697 10.161992,-22.21279 10.891128,-25.76733 1.069076,-5.21175 10.42351,-4.94449 8.81989,2.67269 -1.021,4.84976 -8.906254,29.13262 -19.024924,29.27037 -12.990383,0.17684 -12.746421,-25.51427 -21.915471,-27.91781 -12.756259,-3.34388 -17.110336,20.75647 -17.110336,20.75647 z"
         id="path10"
         inkscape:connector-curvature="0"
         sodipodi:nodetypes="cssssssc" />
    </g>
    <g
       id="g6"
       transform="matrix(1.0000039,0,0,1,-3.2630174e-4,0)"
       style="fill:#ffffff;fill-opacity:1">
      <path
         style="color:#000000;fill:#ffffff;stroke-linecap:square;stroke-linejoin:round;-inkscape-stroke:none;fill-opacity:1"
         d="M 21.166016,197.51562 A 4.2339234,4.2339234 0 0 0 16.933594,201.75 v 59.26758 a 4.2339234,4.2339234 0 0 0 4.232422,4.23242 h 93.134764 a 4.2339234,4.2339234 0 0 0 4.23242,-4.23242 V 201.75 a 4.2339234,4.2339234 0 0 0 -4.23242,-4.23438 z m 4.234375,8.46875 H 110.06641 V 256.7832 H 25.400391 Z"
         id="path5" />
      <path
         style="color:#000000;font-style:normal;font-variant:normal;font-weight:normal;font-stretch:normal;font-size:medium;line-height:normal;font-family:sans-serif;font-variant-ligatures:normal;font-variant-position:normal;font-variant-caps:normal;font-variant-numeric:normal;font-variant-alternates:normal;font-feature-settings:normal;text-indent:0;text-align:start;text-decoration:none;text-decoration-line:none;text-decoration-style:solid;text-decoration-color:#000000;letter-spacing:normal;word-spacing:normal;text-transform:none;writing-mode:lr-tb;direction:ltr;text-orientation:mixed;dominant-baseline:auto;baseline-shift:baseline;text-anchor:start;white-space:normal;shape-padding:0;clip-rule:nonzero;display:inline;overflow:visible;visibility:visible;isolation:auto;mix-blend-mode:normal;color-interpolation:sRGB;color-interpolation-filters:linearRGB;solid-color:#000000;solid-opacity:1;fill:#ffffff;fill-opacity:1;fill-rule:nonzero;stroke:none;stroke-width:4.23333;stroke-linecap:round;stroke-linejoin:miter;stroke-miterlimit:4;stroke-dasharray:none;stroke-dashoffset:0;stroke-opacity:1;color-rendering:auto;image-rendering:auto;shape-rendering:auto;text-rendering:auto;enable-background:accumulate"
         d="m 36.037377,184.81738 a 2.1152862,2.1166667 0 1 0 0,4.23188 h 6.31476 v -4.23188 z m 8.429835,0 v 4.23188 h 1.057537 v -4.23188 z m 3.172612,0 v 4.23188 h 51.789384 a 2.1152862,2.1166667 0 1 0 0,-4.23188 z"
         id="path819"
         inkscape:connector-curvature="0" />
      <path
         style="fill:#ffffff;fill-opacity:1;stroke:#000000;stroke-width:0;stroke-linecap:butt;stroke-linejoin:miter;stroke-miterlimit:4;stroke-dasharray:none;stroke-opacity:1"
         d="m 38.511846,241.87531 c 1.202712,-8.15172 6.992082,-27.44492 18.580318,-24.76551 8.795713,2.03373 11.063719,29.08439 19.759395,25.75112 6.181977,-2.3697 10.161992,-22.21279 10.891128,-25.76733 1.069076,-5.21175 10.42351,-4.94449 8.81989,2.67269 -1.021,4.84976 -8.906254,29.13262 -19.024924,29.27037 -12.990383,0.17684 -12.746421,-25.51427 -21.915471,-27.91781 -12.756259,-3.34388 -17.110336,20.75647 -17.110336,20.75647 z"
         id="path823"
         inkscape:connector-curvature="0"
         sodipodi:nodetypes="cssssssc" />
    </g>
    <g
       id="g13"
       transform="matrix(1.0000039,0,0,1,-3.2630174e-4,0.26458337)"
       style="fill:#e5e5e5;fill-opacity:1">
      <path
         style="color:#000000;fill:#e5e5e5;fill-opacity:1;stroke-linecap:square;stroke-linejoin:round;-inkscape-stroke:none"
         d="M 21.166016,197.51562 A 4.2339234,4.2339234 0 0 0 16.933594,201.75 v 59.26758 a 4.2339234,4.2339234 0 0 0 4.232422,4.23242 h 93.134764 a 4.2339234,4.2339234 0 0 0 4.23242,-4.23242 V 201.75 a 4.2339234,4.2339234 0 0 0 -4.23242,-4.23438 z m 4.234375,8.46875 H 110.06641 V 256.7832 H 25.400391 Z"
         id="path11" />
      <path
         style="color:#000000;font-style:normal;font-variant:normal;font-weight:normal;font-stretch:normal;font-size:medium;line-height:normal;font-family:sans-serif;font-variant-ligatures:normal;font-variant-position:normal;font-variant-caps:normal;font-variant-numeric:normal;font-variant-alternates:normal;font-feature-settings:normal;text-indent:0;text-align:start;text-decoration:none;text-decoration-line:none;text-decoration-style:solid;text-decoration-color:#000000;letter-spacing:normal;word-spacing:normal;text-transform:none;writing-mode:lr-tb;direction:ltr;text-orientation:mixed;dominant-baseline:auto;baseline-shift:baseline;text-anchor:start;white-space:normal;shape-padding:0;clip-rule:nonzero;display:inline;overflow:visible;visibility:visible;isolation:auto;mix-blend-mode:normal;color-interpolation:sRGB;color-interpolation-filters:linearRGB;solid-color:#000000;solid-opacity:1;fill:#e5e5e5;fill-opacity:1;fill-rule:nonzero;stroke:none;stroke-width:4.23333;stroke-linecap:round;stroke-linejoin:miter;stroke-miterlimit:4;stroke-dasharray:none;stroke-dashoffset:0;stroke-opacity:1;color-rendering:auto;image-rendering:auto;shape-rendering:auto;text-rendering:auto;enable-background:accumulate"
         d="m 36.037377,184.81738 a 2.1152862,2.1166667 0 1 0 0,4.23188 h 6.31476 v -4.23188 z m 8.429835,0 v 4.23188 h 1.057537 v -4.23188 z m 3.172612,0 v 4.23188 h 51.789384 a 2.1152862,2.1166667 0 1 0 0,-4.23188 z"
         id="path12"
         inkscape:connector-curvature="0" />
      <path
         style="fill:#e5e5e5;fill-opacity:1;stroke:#000000;stroke-width:0;stroke-linecap:butt;stroke-linejoin:miter;stroke-miterlimit:4;stroke-dasharray:none;stroke-opacity:1"
         d="m 38.511846,241.87531 c 1.202712,-8.15172 6.992082,-27.44492 18.580318,-24.76551 8.795713,2.03373 11.063719,29.08439 19.759395,25.75112 6.181977,-2.3697 10.161992,-22.21279 10.891128,-25.76733 1.069076,-5.21175 10.42351,-4.94449 8.81989,2.67269 -1.021,4.84976 -8.906254,29.13262 -19.024924,29.27037 -12.990383,0.17684 -12.746421,-25.51427 -21.915471,-27.91781 -12.756259,-3.34388 -17.110336,20.75647 -17.110336,20.75647 z"
         id="path13"
         inkscape:connector-curvature="0"
         sodipodi:nodetypes="cssssssc" />
    </g>
  </g>
</svg>
